STARTFONT 2.1
COMMENT
COMMENT Shinonome 14dot font for ISO 8859-1
COMMENT
COMMENT The original is 7x14-ISO8859-1.bdf. (Public Domain)
COMMENT
COMMENT Modified and Maintained by /efont/.
COMMENT
COMMENT (c) /efont/ -- Efont Open Laboratory 2001
COMMENT http://openlab.ring.gr.jp/efont/
COMMENT
FONT -Shinonome-Gothic-Medium-R-Normal--14-130-75-75-C-70-ISO8859-1
SIZE 14 75 75
FONTBOUNDINGBOX 7 14 0 -2
STARTPROPERTIES 24
FONTNAME_REGISTRY ""
FOUNDRY "Shinonome"
FAMILY_NAME "Gothic"
WEIGHT_NAME "Medium"
SLANT "R"
SETWIDTH_NAME "Normal"
ADD_STYLE_NAME ""
PIXEL_SIZE 14
POINT_SIZE 130
RESOLUTION_X 75
RESOLUTION_Y 75
SPACING "C"
AVERAGE_WIDTH 70
CHARSET_REGISTRY "ISO8859"
CHARSET_ENCODING "1"
COPYRIGHT "Public domain font. Share and enjoy."
CAP_HEIGHT 10
X_HEIGHT 7
WEIGHT 10
QUAD_WIDTH 7
DEFAULT_CHAR 0
FONT_DESCENT 2
FONT_ASCENT 12
_XMBDFED_INFO "Edited with xmbdfed 4.4."
ENDPROPERTIES
CHARS 221
STARTCHAR    1
ENCODING 1
SWIDTH 960 0
DWIDTH 7 0
BBX 7 14 0 -2
BITMAP
00
00
30
30
78
78
fc
fc
78
78
30
30
00
00
ENDCHAR
STARTCHAR    2
ENCODING 2
SWIDTH 960 0
DWIDTH 7 0
BBX 7 14 0 -2
BITMAP
54
aa
54
aa
54
aa
54
aa
54
aa
54
aa
54
aa
ENDCHAR
STARTCHAR    3
ENCODING 3
SWIDTH 960 0
DWIDTH 7 0
BBX 7 14 0 -2
BITMAP
00
90
90
f0
90
90
00
7c
10
10
10
10
00
00
ENDCHAR
STARTCHAR    4
ENCODING 4
SWIDTH 960 0
DWIDTH 7 0
BBX 7 14 0 -2
BITMAP
00
e0
80
80
e0
80
9c
90
10
1c
10
10
10
00
ENDCHAR
STARTCHAR    5
ENCODING 5
SWIDTH 960 0
DWIDTH 7 0
BBX 7 14 0 -2
BITMAP
00
70
80
80
80
70
00
38
24
24
38
24
24
00
ENDCHAR
STARTCHAR    6
ENCODING 6
SWIDTH 960 0
DWIDTH 7 0
BBX 7 14 0 -2
BITMAP
00
80
80
80
80
f0
00
3c
20
38
20
20
00
00
ENDCHAR
STARTCHAR    7
ENCODING 7
SWIDTH 960 0
DWIDTH 7 0
BBX 7 14 0 -2
BITMAP
00
30
48
48
30
00
00
00
00
00
00
00
00
00
ENDCHAR
STARTCHAR    8
ENCODING 8
SWIDTH 960 0
DWIDTH 7 0
BBX 7 14 0 -2
BITMAP
00
00
00
00
00
00
10
10
7c
10
10
7c
00
00
ENDCHAR
STARTCHAR    9
ENCODING 9
SWIDTH 960 0
DWIDTH 7 0
BBX 7 14 0 -2
BITMAP
00
00
90
d0
b0
90
90
20
20
20
20
3c
00
00
ENDCHAR
STARTCHAR    a
ENCODING 10
SWIDTH 960 0
DWIDTH 7 0
BBX 7 14 0 -2
BITMAP
00
88
88
88
50
20
00
7c
10
10
10
10
10
00
ENDCHAR
STARTCHAR    b
ENCODING 11
SWIDTH 960 0
DWIDTH 7 0
BBX 7 14 0 -2
BITMAP
10
10
10
10
10
10
10
f0
00
00
00
00
00
00
ENDCHAR
STARTCHAR    c
ENCODING 12
SWIDTH 960 0
DWIDTH 7 0
BBX 7 14 0 -2
BITMAP
00
00
00
00
00
00
00
f0
10
10
10
10
10
10
ENDCHAR
STARTCHAR    d
ENCODING 13
SWIDTH 960 0
DWIDTH 7 0
BBX 7 14 0 -2
BITMAP
00
00
00
00
00
00
00
1e
10
10
10
10
10
10
ENDCHAR
STARTCHAR    e
ENCODING 14
SWIDTH 960 0
DWIDTH 7 0
BBX 7 14 0 -2
BITMAP
10
10
10
10
10
10
10
1e
00
00
00
00
00
00
ENDCHAR
STARTCHAR    f
ENCODING 15
SWIDTH 960 0
DWIDTH 7 0
BBX 7 14 0 -2
BITMAP
10
10
10
10
10
10
10
fe
10
10
10
10
10
10
ENDCHAR
STARTCHAR 0x10
ENCODING 16
SWIDTH 960 0
DWIDTH 7 0
BBX 7 14 0 -2
BITMAP
00
fe
00
00
00
00
00
00
00
00
00
00
00
00
ENDCHAR
STARTCHAR 0x11
ENCODING 17
SWIDTH 960 0
DWIDTH 7 0
BBX 7 14 0 -2
BITMAP
00
00
00
00
fe
00
00
00
00
00
00
00
00
00
ENDCHAR
STARTCHAR   12
ENCODING 18
SWIDTH 960 0
DWIDTH 7 0
BBX 7 14 0 -2
BITMAP
00
00
00
00
00
00
00
fe
00
00
00
00
00
00
ENDCHAR
STARTCHAR 0x13
ENCODING 19
SWIDTH 960 0
DWIDTH 7 0
BBX 7 14 0 -2
BITMAP
00
00
00
00
00
00
00
00
00
00
fe
00
00
00
ENDCHAR
STARTCHAR 0x14
ENCODING 20
SWIDTH 960 0
DWIDTH 7 0
BBX 7 14 0 -2
BITMAP
00
00
00
00
00
00
00
00
00
00
00
00
00
fe
ENDCHAR
STARTCHAR   15
ENCODING 21
SWIDTH 960 0
DWIDTH 7 0
BBX 7 14 0 -2
BITMAP
10
10
10
10
10
10
10
1e
10
10
10
10
10
10
ENDCHAR
STARTCHAR   16
ENCODING 22
SWIDTH 960 0
DWIDTH 7 0
BBX 7 14 0 -2
BITMAP
10
10
10
10
10
10
10
f0
10
10
10
10
10
10
ENDCHAR
STARTCHAR   17
ENCODING 23
SWIDTH 960 0
DWIDTH 7 0
BBX 7 14 0 -2
BITMAP
10
10
10
10
10
10
10
fe
00
00
00
00
00
00
ENDCHAR
STARTCHAR   18
ENCODING 24
SWIDTH 960 0
DWIDTH 7 0
BBX 7 14 0 -2
BITMAP
00
00
00
00
00
00
00
fe
10
10
10
10
10
10
ENDCHAR
STARTCHAR   19
ENCODING 25
SWIDTH 960 0
DWIDTH 7 0
BBX 7 14 0 -2
BITMAP
10
10
10
10
10
10
10
10
10
10
10
10
10
10
ENDCHAR
STARTCHAR   1a
ENCODING 26
SWIDTH 960 0
DWIDTH 7 0
BBX 7 14 0 -2
BITMAP
00
00
00
00
0c
30
c0
30
0c
00
fc
00
00
00
ENDCHAR
STARTCHAR   1b
ENCODING 27
SWIDTH 960 0
DWIDTH 7 0
BBX 7 14 0 -2
BITMAP
00
00
00
00
c0
30
0c
30
c0
00
fc
00
00
00
ENDCHAR
STARTCHAR   1c
ENCODING 28
SWIDTH 960 0
DWIDTH 7 0
BBX 7 14 0 -2
BITMAP
00
00
00
00
00
fc
48
48
48
48
48
88
00
00
ENDCHAR
STARTCHAR   1d
ENCODING 29
SWIDTH 960 0
DWIDTH 7 0
BBX 7 14 0 -2
BITMAP
00
00
00
08
08
fc
10
10
fc
20
20
00
00
00
ENDCHAR
STARTCHAR   1e
ENCODING 30
SWIDTH 960 0
DWIDTH 7 0
BBX 7 14 0 -2
BITMAP
00
00
00
18
24
20
20
78
20
20
78
64
00
00
ENDCHAR
STARTCHAR   1f
ENCODING 31
SWIDTH 960 0
DWIDTH 7 0
BBX 7 14 0 -2
BITMAP
00
00
00
00
00
00
30
30
00
00
00
00
00
00
ENDCHAR
STARTCHAR   20
ENCODING 32
SWIDTH 960 0
DWIDTH 7 0
BBX 7 14 0 -2
BITMAP
00
00
00
00
00
00
00
00
00
00
00
00
00
00
ENDCHAR
STARTCHAR   21
ENCODING 33
SWIDTH 960 0
DWIDTH 7 0
BBX 7 14 0 -2
BITMAP
00
00
10
10
10
10
10
10
10
00
10
10
00
00
ENDCHAR
STARTCHAR   22
ENCODING 34
SWIDTH 960 0
DWIDTH 7 0
BBX 7 14 0 -2
BITMAP
00
6c
24
24
48
00
00
00
00
00
00
00
00
00
ENDCHAR
STARTCHAR   23
ENCODING 35
SWIDTH 960 0
DWIDTH 7 0
BBX 7 14 0 -2
BITMAP
00
00
28
28
28
7c
28
28
7c
28
28
28
00
00
ENDCHAR
STARTCHAR   24
ENCODING 36
SWIDTH 960 0
DWIDTH 7 0
BBX 7 14 0 -2
BITMAP
00
00
10
78
94
94
50
38
14
94
94
78
10
00
ENDCHAR
STARTCHAR   25
ENCODING 37
SWIDTH 960 0
DWIDTH 7 0
BBX 7 14 0 -2
BITMAP
00
00
64
94
98
70
10
20
38
64
a4
98
00
00
ENDCHAR
STARTCHAR   26
ENCODING 38
SWIDTH 960 0
DWIDTH 7 0
BBX 7 14 0 -2
BITMAP
00
00
30
48
48
48
30
64
94
88
98
64
00
00
ENDCHAR
STARTCHAR   27
ENCODING 39
SWIDTH 960 0
DWIDTH 7 0
BBX 7 14 0 -2
BITMAP
00
30
10
10
20
00
00
00
00
00
00
00
00
00
ENDCHAR
STARTCHAR   28
ENCODING 40
SWIDTH 960 0
DWIDTH 7 0
BBX 7 14 0 -2
BITMAP
00
04
08
10
10
20
20
20
20
20
10
10
08
04
ENDCHAR
STARTCHAR   29
ENCODING 41
SWIDTH 960 0
DWIDTH 7 0
BBX 7 14 0 -2
BITMAP
00
40
20
10
10
08
08
08
08
08
10
10
20
40
ENDCHAR
STARTCHAR   2a
ENCODING 42
SWIDTH 960 0
DWIDTH 7 0
BBX 7 14 0 -2
BITMAP
00
00
00
00
10
54
38
10
38
54
10
00
00
00
ENDCHAR
STARTCHAR   2b
ENCODING 43
SWIDTH 960 0
DWIDTH 7 0
BBX 7 14 0 -2
BITMAP
00
00
00
00
10
10
10
7c
10
10
10
00
00
00
ENDCHAR
STARTCHAR   2c
ENCODING 44
SWIDTH 960 0
DWIDTH 7 0
BBX 7 14 0 -2
BITMAP
00
00
00
00
00
00
00
00
00
00
30
10
10
20
ENDCHAR
STARTCHAR   2d
ENCODING 45
SWIDTH 960 0
DWIDTH 7 0
BBX 7 14 0 -2
BITMAP
00
00
00
00
00
00
00
7c
00
00
00
00
00
00
ENDCHAR
STARTCHAR   2e
ENCODING 46
SWIDTH 960 0
DWIDTH 7 0
BBX 7 14 0 -2
BITMAP
00
00
00
00
00
00
00
00
00
00
30
30
00
00
ENDCHAR
STARTCHAR   2f
ENCODING 47
SWIDTH 960 0
DWIDTH 7 0
BBX 7 14 0 -2
BITMAP
00
04
04
08
08
10
10
10
20
20
40
40
80
80
ENDCHAR
STARTCHAR   30
ENCODING 48
SWIDTH 960 0
DWIDTH 7 0
BBX 7 14 0 -2
BITMAP
00
00
30
48
84
84
84
84
84
84
48
30
00
00
ENDCHAR
STARTCHAR   31
ENCODING 49
SWIDTH 960 0
DWIDTH 7 0
BBX 7 14 0 -2
BITMAP
00
00
10
30
50
10
10
10
10
10
10
7c
00
00
ENDCHAR
STARTCHAR   32
ENCODING 50
SWIDTH 960 0
DWIDTH 7 0
BBX 7 14 0 -2
BITMAP
00
00
78
84
84
04
08
08
10
20
40
fc
00
00
ENDCHAR
STARTCHAR   33
ENCODING 51
SWIDTH 960 0
DWIDTH 7 0
BBX 7 14 0 -2
BITMAP
00
00
fc
04
08
10
38
04
04
84
84
78
00
00
ENDCHAR
STARTCHAR   34
ENCODING 52
SWIDTH 960 0
DWIDTH 7 0
BBX 7 14 0 -2
BITMAP
00
00
08
18
28
28
48
48
88
fc
08
08
00
00
ENDCHAR
STARTCHAR   35
ENCODING 53
SWIDTH 960 0
DWIDTH 7 0
BBX 7 14 0 -2
BITMAP
00
00
fc
80
80
f8
84
04
04
84
84
78
00
00
ENDCHAR
STARTCHAR   36
ENCODING 54
SWIDTH 960 0
DWIDTH 7 0
BBX 7 14 0 -2
BITMAP
00
00
38
40
80
80
b8
c4
84
84
84
78
00
00
ENDCHAR
STARTCHAR   37
ENCODING 55
SWIDTH 960 0
DWIDTH 7 0
BBX 7 14 0 -2
BITMAP
00
00
fc
04
08
08
10
10
20
20
40
40
00
00
ENDCHAR
STARTCHAR   38
ENCODING 56
SWIDTH 960 0
DWIDTH 7 0
BBX 7 14 0 -2
BITMAP
00
00
78
84
84
48
30
48
84
84
84
78
00
00
ENDCHAR
STARTCHAR   39
ENCODING 57
SWIDTH 960 0
DWIDTH 7 0
BBX 7 14 0 -2
BITMAP
00
00
78
84
84
84
8c
74
04
84
88
70
00
00
ENDCHAR
STARTCHAR   3a
ENCODING 58
SWIDTH 960 0
DWIDTH 7 0
BBX 7 14 0 -2
BITMAP
00
00
00
00
00
30
30
00
00
30
30
00
00
00
ENDCHAR
STARTCHAR   3b
ENCODING 59
SWIDTH 960 0
DWIDTH 7 0
BBX 7 14 0 -2
BITMAP
00
00
00
00
00
30
30
00
00
30
10
10
20
00
ENDCHAR
STARTCHAR   3c
ENCODING 60
SWIDTH 960 0
DWIDTH 7 0
BBX 7 14 0 -2
BITMAP
00
00
00
04
08
10
20
40
20
10
08
04
00
00
ENDCHAR
STARTCHAR   3d
ENCODING 61
SWIDTH 960 0
DWIDTH 7 0
BBX 7 14 0 -2
BITMAP
00
00
00
00
00
fc
00
00
fc
00
00
00
00
00
ENDCHAR
STARTCHAR   3e
ENCODING 62
SWIDTH 960 0
DWIDTH 7 0
BBX 7 14 0 -2
BITMAP
00
00
00
40
20
10
08
04
08
10
20
40
00
00
ENDCHAR
STARTCHAR   3f
ENCODING 63
SWIDTH 960 0
DWIDTH 7 0
BBX 7 14 0 -2
BITMAP
00
00
78
84
84
08
10
10
10
00
10
10
00
00
ENDCHAR
STARTCHAR   40
ENCODING 64
SWIDTH 960 0
DWIDTH 7 0
BBX 7 14 0 -2
BITMAP
00
00
38
44
9c
a4
a4
a4
a4
9c
40
3c
00
00
ENDCHAR
STARTCHAR   41
ENCODING 65
SWIDTH 960 0
DWIDTH 7 0
BBX 7 14 0 -2
BITMAP
00
00
30
30
48
48
48
78
84
84
84
84
00
00
ENDCHAR
STARTCHAR   42
ENCODING 66
SWIDTH 960 0
DWIDTH 7 0
BBX 7 14 0 -2
BITMAP
00
00
f0
88
88
88
f0
88
84
84
88
f0
00
00
ENDCHAR
STARTCHAR   43
ENCODING 67
SWIDTH 960 0
DWIDTH 7 0
BBX 7 14 0 -2
BITMAP
00
00
38
44
84
80
80
80
80
84
44
38
00
00
ENDCHAR
STARTCHAR   44
ENCODING 68
SWIDTH 960 0
DWIDTH 7 0
BBX 7 14 0 -2
BITMAP
00
00
f0
88
84
84
84
84
84
84
88
f0
00
00
ENDCHAR
STARTCHAR   45
ENCODING 69
SWIDTH 960 0
DWIDTH 7 0
BBX 7 14 0 -2
BITMAP
00
00
fc
80
80
80
f0
80
80
80
80
fc
00
00
ENDCHAR
STARTCHAR   46
ENCODING 70
SWIDTH 960 0
DWIDTH 7 0
BBX 7 14 0 -2
BITMAP
00
00
fc
80
80
80
f0
80
80
80
80
80
00
00
ENDCHAR
STARTCHAR   47
ENCODING 71
SWIDTH 960 0
DWIDTH 7 0
BBX 7 14 0 -2
BITMAP
00
00
38
44
84
80
80
9c
84
84
4c
34
00
00
ENDCHAR
STARTCHAR   48
ENCODING 72
SWIDTH 960 0
DWIDTH 7 0
BBX 7 14 0 -2
BITMAP
00
00
84
84
84
84
fc
84
84
84
84
84
00
00
ENDCHAR
STARTCHAR   49
ENCODING 73
SWIDTH 960 0
DWIDTH 7 0
BBX 7 14 0 -2
BITMAP
00
00
38
10
10
10
10
10
10
10
10
38
00
00
ENDCHAR
STARTCHAR   4a
ENCODING 74
SWIDTH 960 0
DWIDTH 7 0
BBX 7 14 0 -2
BITMAP
00
00
08
08
08
08
08
08
08
88
88
70
00
00
ENDCHAR
STARTCHAR   4b
ENCODING 75
SWIDTH 960 0
DWIDTH 7 0
BBX 7 14 0 -2
BITMAP
00
00
84
88
90
90
a0
d0
90
88
88
84
00
00
ENDCHAR
STARTCHAR   4c
ENCODING 76
SWIDTH 960 0
DWIDTH 7 0
BBX 7 14 0 -2
BITMAP
00
00
80
80
80
80
80
80
80
80
80
fc
00
00
ENDCHAR
STARTCHAR   4d
ENCODING 77
SWIDTH 960 0
DWIDTH 7 0
BBX 7 14 0 -2
BITMAP
00
00
84
cc
cc
b4
b4
84
84
84
84
84
00
00
ENDCHAR
STARTCHAR   4e
ENCODING 78
SWIDTH 960 0
DWIDTH 7 0
BBX 7 14 0 -2
BITMAP
00
00
84
84
c4
c4
a4
94
8c
8c
84
84
00
00
ENDCHAR
STARTCHAR   4f
ENCODING 79
SWIDTH 960 0
DWIDTH 7 0
BBX 7 14 0 -2
BITMAP
00
00
78
84
84
84
84
84
84
84
84
78
00
00
ENDCHAR
STARTCHAR   50
ENCODING 80
SWIDTH 960 0
DWIDTH 7 0
BBX 7 14 0 -2
BITMAP
00
00
f8
84
84
84
84
f8
80
80
80
80
00
00
ENDCHAR
STARTCHAR   51
ENCODING 81
SWIDTH 960 0
DWIDTH 7 0
BBX 7 14 0 -2
BITMAP
00
00
78
84
84
84
84
84
e4
94
8c
78
08
04
ENDCHAR
STARTCHAR   52
ENCODING 82
SWIDTH 960 0
DWIDTH 7 0
BBX 7 14 0 -2
BITMAP
00
00
f8
84
84
84
84
f8
90
88
84
84
00
00
ENDCHAR
STARTCHAR   53
ENCODING 83
SWIDTH 960 0
DWIDTH 7 0
BBX 7 14 0 -2
BITMAP
00
00
78
84
84
80
60
18
04
84
84
78
00
00
ENDCHAR
STARTCHAR   54
ENCODING 84
SWIDTH 960 0
DWIDTH 7 0
BBX 7 14 0 -2
BITMAP
00
00
fe
10
10
10
10
10
10
10
10
10
00
00
ENDCHAR
STARTCHAR   55
ENCODING 85
SWIDTH 960 0
DWIDTH 7 0
BBX 7 14 0 -2
BITMAP
00
00
84
84
84
84
84
84
84
84
84
78
00
00
ENDCHAR
STARTCHAR   56
ENCODING 86
SWIDTH 960 0
DWIDTH 7 0
BBX 7 14 0 -2
BITMAP
00
00
84
84
84
84
48
48
48
30
30
30
00
00
ENDCHAR
STARTCHAR   57
ENCODING 87
SWIDTH 960 0
DWIDTH 7 0
BBX 7 14 0 -2
BITMAP
00
00
44
44
44
54
54
54
54
54
28
28
00
00
ENDCHAR
STARTCHAR   58
ENCODING 88
SWIDTH 960 0
DWIDTH 7 0
BBX 7 14 0 -2
BITMAP
00
00
84
84
48
48
30
30
48
48
84
84
00
00
ENDCHAR
STARTCHAR   59
ENCODING 89
SWIDTH 960 0
DWIDTH 7 0
BBX 7 14 0 -2
BITMAP
00
00
44
44
44
28
28
10
10
10
10
10
00
00
ENDCHAR
STARTCHAR   5a
ENCODING 90
SWIDTH 960 0
DWIDTH 7 0
BBX 7 14 0 -2
BITMAP
00
00
fc
04
08
10
10
20
40
40
80
fc
00
00
ENDCHAR
STARTCHAR   5b
ENCODING 91
SWIDTH 960 0
DWIDTH 7 0
BBX 7 14 0 -2
BITMAP
00
3c
20
20
20
20
20
20
20
20
20
20
20
3c
ENDCHAR
STARTCHAR   5c
ENCODING 92
SWIDTH 960 0
DWIDTH 7 0
BBX 7 14 0 -2
BITMAP
00
80
80
40
40
20
20
20
10
10
08
08
04
04
ENDCHAR
STARTCHAR   5d
ENCODING 93
SWIDTH 960 0
DWIDTH 7 0
BBX 7 14 0 -2
BITMAP
00
78
08
08
08
08
08
08
08
08
08
08
08
78
ENDCHAR
STARTCHAR   5e
ENCODING 94
SWIDTH 960 0
DWIDTH 7 0
BBX 7 14 0 -2
BITMAP
00
30
48
84
00
00
00
00
00
00
00
00
00
00
ENDCHAR
STARTCHAR   5f
ENCODING 95
SWIDTH 960 0
DWIDTH 7 0
BBX 7 14 0 -2
BITMAP
00
00
00
00
00
00
00
00
00
00
00
00
00
fc
ENDCHAR
STARTCHAR   60
ENCODING 96
SWIDTH 960 0
DWIDTH 7 0
BBX 7 14 0 -2
BITMAP
00
30
20
20
10
00
00
00
00
00
00
00
00
00
ENDCHAR
STARTCHAR   61
ENCODING 97
SWIDTH 960 0
DWIDTH 7 0
BBX 7 14 0 -2
BITMAP
00
00
00
00
00
78
84
04
7c
84
84
7c
00
00
ENDCHAR
STARTCHAR   62
ENCODING 98
SWIDTH 960 0
DWIDTH 7 0
BBX 7 14 0 -2
BITMAP
00
00
80
80
80
b8
c4
84
84
84
c4
b8
00
00
ENDCHAR
STARTCHAR   63
ENCODING 99
SWIDTH 960 0
DWIDTH 7 0
BBX 7 14 0 -2
BITMAP
00
00
00
00
00
78
84
80
80
80
84
78
00
00
ENDCHAR
STARTCHAR   64
ENCODING 100
SWIDTH 960 0
DWIDTH 7 0
BBX 7 14 0 -2
BITMAP
00
00
04
04
04
74
8c
84
84
84
8c
74
00
00
ENDCHAR
STARTCHAR   65
ENCODING 101
SWIDTH 960 0
DWIDTH 7 0
BBX 7 14 0 -2
BITMAP
00
00
00
00
00
78
84
84
fc
80
84
78
00
00
ENDCHAR
STARTCHAR   66
ENCODING 102
SWIDTH 960 0
DWIDTH 7 0
BBX 7 14 0 -2
BITMAP
00
00
18
24
20
20
f8
20
20
20
20
20
00
00
ENDCHAR
STARTCHAR   67
ENCODING 103
SWIDTH 960 0
DWIDTH 7 0
BBX 7 14 0 -2
BITMAP
00
00
00
00
00
74
88
88
88
70
40
b8
84
78
ENDCHAR
STARTCHAR   68
ENCODING 104
SWIDTH 960 0
DWIDTH 7 0
BBX 7 14 0 -2
BITMAP
00
00
80
80
80
b8
c4
84
84
84
84
84
00
00
ENDCHAR
STARTCHAR   69
ENCODING 105
SWIDTH 960 0
DWIDTH 7 0
BBX 7 14 0 -2
BITMAP
00
00
10
10
00
30
10
10
10
10
10
10
00
00
ENDCHAR
STARTCHAR   6a
ENCODING 106
SWIDTH 960 0
DWIDTH 7 0
BBX 7 14 0 -2
BITMAP
00
00
08
08
00
18
08
08
08
08
08
08
10
60
ENDCHAR
STARTCHAR   6b
ENCODING 107
SWIDTH 960 0
DWIDTH 7 0
BBX 7 14 0 -2
BITMAP
00
00
80
80
80
88
90
a0
e0
90
88
84
00
00
ENDCHAR
STARTCHAR   6c
ENCODING 108
SWIDTH 960 0
DWIDTH 7 0
BBX 7 14 0 -2
BITMAP
00
00
30
10
10
10
10
10
10
10
10
10
00
00
ENDCHAR
STARTCHAR   6d
ENCODING 109
SWIDTH 960 0
DWIDTH 7 0
BBX 7 14 0 -2
BITMAP
00
00
00
00
00
68
54
54
54
54
54
44
00
00
ENDCHAR
STARTCHAR   6e
ENCODING 110
SWIDTH 960 0
DWIDTH 7 0
BBX 7 14 0 -2
BITMAP
00
00
00
00
00
b8
c4
84
84
84
84
84
00
00
ENDCHAR
STARTCHAR   6f
ENCODING 111
SWIDTH 960 0
DWIDTH 7 0
BBX 7 14 0 -2
BITMAP
00
00
00
00
00
78
84
84
84
84
84
78
00
00
ENDCHAR
STARTCHAR   70
ENCODING 112
SWIDTH 960 0
DWIDTH 7 0
BBX 7 14 0 -2
BITMAP
00
00
00
00
00
b8
c4
84
84
84
c4
b8
80
80
ENDCHAR
STARTCHAR   71
ENCODING 113
SWIDTH 960 0
DWIDTH 7 0
BBX 7 14 0 -2
BITMAP
00
00
00
00
00
74
8c
84
84
84
8c
74
04
04
ENDCHAR
STARTCHAR   72
ENCODING 114
SWIDTH 960 0
DWIDTH 7 0
BBX 7 14 0 -2
BITMAP
00
00
00
00
00
b8
c4
84
80
80
80
80
00
00
ENDCHAR
STARTCHAR   73
ENCODING 115
SWIDTH 960 0
DWIDTH 7 0
BBX 7 14 0 -2
BITMAP
00
00
00
00
00
78
84
40
30
08
84
78
00
00
ENDCHAR
STARTCHAR   74
ENCODING 116
SWIDTH 960 0
DWIDTH 7 0
BBX 7 14 0 -2
BITMAP
00
00
20
20
20
f8
20
20
20
20
24
18
00
00
ENDCHAR
STARTCHAR   75
ENCODING 117
SWIDTH 960 0
DWIDTH 7 0
BBX 7 14 0 -2
BITMAP
00
00
00
00
00
84
84
84
84
84
8c
74
00
00
ENDCHAR
STARTCHAR   76
ENCODING 118
SWIDTH 960 0
DWIDTH 7 0
BBX 7 14 0 -2
BITMAP
00
00
00
00
00
44
44
44
28
28
10
10
00
00
ENDCHAR
STARTCHAR   77
ENCODING 119
SWIDTH 960 0
DWIDTH 7 0
BBX 7 14 0 -2
BITMAP
00
00
00
00
00
44
44
54
54
54
28
28
00
00
ENDCHAR
STARTCHAR   78
ENCODING 120
SWIDTH 960 0
DWIDTH 7 0
BBX 7 14 0 -2
BITMAP
00
00
00
00
00
84
48
48
30
48
48
84
00
00
ENDCHAR
STARTCHAR   79
ENCODING 121
SWIDTH 960 0
DWIDTH 7 0
BBX 7 14 0 -2
BITMAP
00
00
00
00
00
84
84
48
48
30
10
20
20
c0
ENDCHAR
STARTCHAR   7a
ENCODING 122
SWIDTH 960 0
DWIDTH 7 0
BBX 7 14 0 -2
BITMAP
00
00
00
00
00
fc
08
10
20
20
40
fc
00
00
ENDCHAR
STARTCHAR   7b
ENCODING 123
SWIDTH 960 0
DWIDTH 7 0
BBX 7 14 0 -2
BITMAP
00
0c
10
10
10
10
10
20
10
10
10
10
10
0c
ENDCHAR
STARTCHAR   7c
ENCODING 124
SWIDTH 960 0
DWIDTH 7 0
BBX 7 14 0 -2
BITMAP
00
10
10
10
10
10
10
10
10
10
10
10
10
10
ENDCHAR
STARTCHAR   7d
ENCODING 125
SWIDTH 960 0
DWIDTH 7 0
BBX 7 14 0 -2
BITMAP
00
60
10
10
10
10
10
08
10
10
10
10
10
60
ENDCHAR
STARTCHAR   7e
ENCODING 126
SWIDTH 960 0
DWIDTH 7 0
BBX 7 14 0 -2
BITMAP
00
40
a4
94
08
00
00
00
00
00
00
00
00
00
ENDCHAR
STARTCHAR   a1
ENCODING 161
SWIDTH 960 0
DWIDTH 7 0
BBX 7 14 0 -2
BITMAP
00
00
10
10
00
10
10
10
10
10
10
10
00
00
ENDCHAR
STARTCHAR   a2
ENCODING 162
SWIDTH 960 0
DWIDTH 7 0
BBX 7 14 0 -2
BITMAP
00
00
00
00
20
78
a4
a0
a0
a0
a4
78
20
00
ENDCHAR
STARTCHAR   a3
ENCODING 163
SWIDTH 960 0
DWIDTH 7 0
BBX 7 14 0 -2
BITMAP
00
00
00
18
24
20
20
78
20
20
78
24
00
00
ENDCHAR
STARTCHAR   a4
ENCODING 164
SWIDTH 960 0
DWIDTH 7 0
BBX 7 14 0 -2
BITMAP
00
00
00
00
84
78
48
48
78
84
00
00
00
00
ENDCHAR
STARTCHAR   a5
ENCODING 165
SWIDTH 960 0
DWIDTH 7 0
BBX 7 14 0 -2
BITMAP
00
00
44
28
28
10
7c
10
7c
10
10
10
00
00
ENDCHAR
STARTCHAR   a6
ENCODING 166
SWIDTH 960 0
DWIDTH 7 0
BBX 7 14 0 -2
BITMAP
00
00
10
10
10
10
00
00
10
10
10
10
00
00
ENDCHAR
STARTCHAR   a7
ENCODING 167
SWIDTH 960 0
DWIDTH 7 0
BBX 7 14 0 -2
BITMAP
00
78
84
40
30
48
84
48
30
08
84
78
00
00
ENDCHAR
STARTCHAR   a8
ENCODING 168
SWIDTH 960 0
DWIDTH 7 0
BBX 7 14 0 -2
BITMAP
00
48
48
00
00
00
00
00
00
00
00
00
00
00
ENDCHAR
STARTCHAR   a9
ENCODING 169
SWIDTH 960 0
DWIDTH 7 0
BBX 7 14 0 -2
BITMAP
00
78
84
b4
cc
c4
c4
c4
cc
b4
84
78
00
00
ENDCHAR
STARTCHAR   aa
ENCODING 170
SWIDTH 960 0
DWIDTH 7 0
BBX 7 14 0 -2
BITMAP
00
38
44
3c
44
4c
34
00
7c
00
00
00
00
00
ENDCHAR
STARTCHAR   ab
ENCODING 171
SWIDTH 960 0
DWIDTH 7 0
BBX 7 14 0 -2
BITMAP
00
00
00
00
00
14
28
50
a0
50
28
14
00
00
ENDCHAR
STARTCHAR   ac
ENCODING 172
SWIDTH 960 0
DWIDTH 7 0
BBX 7 14 0 -2
BITMAP
00
00
00
00
00
00
00
00
7c
04
04
04
00
00
ENDCHAR
STARTCHAR   ad
ENCODING 173
SWIDTH 960 0
DWIDTH 7 0
BBX 7 14 0 -2
BITMAP
00
00
00
00
00
00
00
78
00
00
00
00
00
00
ENDCHAR
STARTCHAR   ae
ENCODING 174
SWIDTH 960 0
DWIDTH 7 0
BBX 7 14 0 -2
BITMAP
00
78
84
f4
cc
cc
f4
cc
cc
cc
84
78
00
00
ENDCHAR
STARTCHAR   af
ENCODING 175
SWIDTH 960 0
DWIDTH 7 0
BBX 7 14 0 -2
BITMAP
00
00
7c
00
00
00
00
00
00
00
00
00
00
00
ENDCHAR
STARTCHAR   b0
ENCODING 176
SWIDTH 960 0
DWIDTH 7 0
BBX 7 14 0 -2
BITMAP
00
30
48
48
30
00
00
00
00
00
00
00
00
00
ENDCHAR
STARTCHAR   b1
ENCODING 177
SWIDTH 960 0
DWIDTH 7 0
BBX 7 14 0 -2
BITMAP
00
00
00
00
00
00
10
10
7c
10
10
7c
00
00
ENDCHAR
STARTCHAR   b2
ENCODING 178
SWIDTH 960 0
DWIDTH 7 0
BBX 7 14 0 -2
BITMAP
00
30
48
08
10
20
40
78
00
00
00
00
00
00
ENDCHAR
STARTCHAR   b3
ENCODING 179
SWIDTH 960 0
DWIDTH 7 0
BBX 7 14 0 -2
BITMAP
00
30
48
08
30
08
48
30
00
00
00
00
00
00
ENDCHAR
STARTCHAR   b4
ENCODING 180
SWIDTH 960 0
DWIDTH 7 0
BBX 7 14 0 -2
BITMAP
00
08
10
20
00
00
00
00
00
00
00
00
00
00
ENDCHAR
STARTCHAR   b5
ENCODING 181
SWIDTH 960 0
DWIDTH 7 0
BBX 7 14 0 -2
BITMAP
00
00
00
00
00
00
44
44
44
44
6c
54
40
80
ENDCHAR
STARTCHAR   b6
ENCODING 182
SWIDTH 960 0
DWIDTH 7 0
BBX 7 14 0 -2
BITMAP
00
00
3c
74
74
74
74
34
14
14
14
14
14
14
ENDCHAR
STARTCHAR   b7
ENCODING 183
SWIDTH 960 0
DWIDTH 7 0
BBX 7 14 0 -2
BITMAP
00
00
00
00
00
00
30
30
00
00
00
00
00
00
ENDCHAR
STARTCHAR   b8
ENCODING 184
SWIDTH 960 0
DWIDTH 7 0
BBX 7 14 0 -2
BITMAP
00
00
00
00
00
00
00
00
00
00
00
10
10
20
ENDCHAR
STARTCHAR   b9
ENCODING 185
SWIDTH 960 0
DWIDTH 7 0
BBX 7 14 0 -2
BITMAP
00
10
30
10
10
10
10
38
00
00
00
00
00
00
ENDCHAR
STARTCHAR   ba
ENCODING 186
SWIDTH 960 0
DWIDTH 7 0
BBX 7 14 0 -2
BITMAP
00
00
30
48
48
30
00
78
00
00
00
00
00
00
ENDCHAR
STARTCHAR   bb
ENCODING 187
SWIDTH 960 0
DWIDTH 7 0
BBX 7 14 0 -2
BITMAP
00
00
00
00
00
a0
50
28
14
28
50
a0
00
00
ENDCHAR
STARTCHAR   bc
ENCODING 188
SWIDTH 960 0
DWIDTH 7 0
BBX 7 14 0 -2
BITMAP
00
00
40
c4
48
48
50
24
2c
54
9c
84
00
00
ENDCHAR
STARTCHAR   bd
ENCODING 189
SWIDTH 960 0
DWIDTH 7 0
BBX 7 14 0 -2
BITMAP
00
00
40
c4
48
48
50
28
34
44
88
9c
00
00
ENDCHAR
STARTCHAR   be
ENCODING 190
SWIDTH 960 0
DWIDTH 7 0
BBX 7 14 0 -2
BITMAP
00
00
c4
24
48
30
d0
24
4c
54
9c
04
00
00
ENDCHAR
STARTCHAR   bf
ENCODING 191
SWIDTH 960 0
DWIDTH 7 0
BBX 7 14 0 -2
BITMAP
00
00
00
20
20
00
20
20
20
20
40
84
84
78
ENDCHAR
STARTCHAR   c0
ENCODING 192
SWIDTH 960 0
DWIDTH 7 0
BBX 7 14 0 -2
BITMAP
20
10
00
30
30
48
48
78
84
84
84
84
00
00
ENDCHAR
STARTCHAR   c1
ENCODING 193
SWIDTH 960 0
DWIDTH 7 0
BBX 7 14 0 -2
BITMAP
10
20
00
30
30
48
48
78
84
84
84
84
00
00
ENDCHAR
STARTCHAR   c2
ENCODING 194
SWIDTH 960 0
DWIDTH 7 0
BBX 7 14 0 -2
BITMAP
30
48
00
30
30
48
48
78
84
84
84
84
00
00
ENDCHAR
STARTCHAR   c3
ENCODING 195
SWIDTH 960 0
DWIDTH 7 0
BBX 7 14 0 -2
BITMAP
64
98
00
30
30
48
48
78
84
84
84
84
00
00
ENDCHAR
STARTCHAR   c4
ENCODING 196
SWIDTH 960 0
DWIDTH 7 0
BBX 7 14 0 -2
BITMAP
00
48
00
30
30
48
48
78
84
84
84
84
00
00
ENDCHAR
STARTCHAR   c5
ENCODING 197
SWIDTH 960 0
DWIDTH 7 0
BBX 7 14 0 -2
BITMAP
00
30
48
30
30
48
48
78
84
84
84
84
00
00
ENDCHAR
STARTCHAR   c6
ENCODING 198
SWIDTH 960 0
DWIDTH 7 0
BBX 7 14 0 -2
BITMAP
00
00
3c
30
50
50
7c
50
90
90
90
9c
00
00
ENDCHAR
STARTCHAR   c7
ENCODING 199
SWIDTH 960 0
DWIDTH 7 0
BBX 7 14 0 -2
BITMAP
00
00
38
44
84
80
80
80
80
84
44
38
10
20
ENDCHAR
STARTCHAR   c8
ENCODING 200
SWIDTH 960 0
DWIDTH 7 0
BBX 7 14 0 -2
BITMAP
20
10
00
fc
80
80
80
f8
80
80
80
fc
00
00
ENDCHAR
STARTCHAR   c9
ENCODING 201
SWIDTH 960 0
DWIDTH 7 0
BBX 7 14 0 -2
BITMAP
10
20
00
fc
80
80
80
f8
80
80
80
fc
00
00
ENDCHAR
STARTCHAR   ca
ENCODING 202
SWIDTH 960 0
DWIDTH 7 0
BBX 7 14 0 -2
BITMAP
30
48
00
fc
80
80
80
f8
80
80
80
fc
00
00
ENDCHAR
STARTCHAR   cb
ENCODING 203
SWIDTH 960 0
DWIDTH 7 0
BBX 7 14 0 -2
BITMAP
00
48
00
fc
80
80
80
f8
80
80
80
fc
00
00
ENDCHAR
STARTCHAR   cc
ENCODING 204
SWIDTH 960 0
DWIDTH 7 0
BBX 7 14 0 -2
BITMAP
20
10
00
38
10
10
10
10
10
10
10
38
00
00
ENDCHAR
STARTCHAR   cd
ENCODING 205
SWIDTH 960 0
DWIDTH 7 0
BBX 7 14 0 -2
BITMAP
08
10
00
38
10
10
10
10
10
10
10
38
00
00
ENDCHAR
STARTCHAR   ce
ENCODING 206
SWIDTH 960 0
DWIDTH 7 0
BBX 7 14 0 -2
BITMAP
10
28
00
38
10
10
10
10
10
10
10
38
00
00
ENDCHAR
STARTCHAR   cf
ENCODING 207
SWIDTH 960 0
DWIDTH 7 0
BBX 7 14 0 -2
BITMAP
00
28
00
38
10
10
10
10
10
10
10
38
00
00
ENDCHAR
STARTCHAR   d0
ENCODING 208
SWIDTH 960 0
DWIDTH 7 0
BBX 7 14 0 -2
BITMAP
00
00
78
44
42
42
f2
42
42
42
44
78
00
00
ENDCHAR
STARTCHAR   d1
ENCODING 209
SWIDTH 960 0
DWIDTH 7 0
BBX 7 14 0 -2
BITMAP
64
98
00
c4
c4
a4
a4
94
94
94
8c
8c
00
00
ENDCHAR
STARTCHAR   d2
ENCODING 210
SWIDTH 960 0
DWIDTH 7 0
BBX 7 14 0 -2
BITMAP
20
10
00
78
84
84
84
84
84
84
84
78
00
00
ENDCHAR
STARTCHAR   d3
ENCODING 211
SWIDTH 960 0
DWIDTH 7 0
BBX 7 14 0 -2
BITMAP
10
20
00
78
84
84
84
84
84
84
84
78
00
00
ENDCHAR
STARTCHAR   d4
ENCODING 212
SWIDTH 960 0
DWIDTH 7 0
BBX 7 14 0 -2
BITMAP
30
48
00
78
84
84
84
84
84
84
84
78
00
00
ENDCHAR
STARTCHAR   d5
ENCODING 213
SWIDTH 960 0
DWIDTH 7 0
BBX 7 14 0 -2
BITMAP
64
98
00
78
84
84
84
84
84
84
84
78
00
00
ENDCHAR
STARTCHAR   d6
ENCODING 214
SWIDTH 960 0
DWIDTH 7 0
BBX 7 14 0 -2
BITMAP
00
48
00
78
84
84
84
84
84
84
84
78
00
00
ENDCHAR
STARTCHAR   d7
ENCODING 215
SWIDTH 960 0
DWIDTH 7 0
BBX 7 14 0 -2
BITMAP
00
00
00
00
82
44
28
10
28
44
82
00
00
00
ENDCHAR
STARTCHAR   d8
ENCODING 216
SWIDTH 960 0
DWIDTH 7 0
BBX 7 14 0 -2
BITMAP
04
04
78
8c
94
94
94
a4
a4
a4
c4
78
80
80
ENDCHAR
STARTCHAR   d9
ENCODING 217
SWIDTH 960 0
DWIDTH 7 0
BBX 7 14 0 -2
BITMAP
20
10
00
84
84
84
84
84
84
84
84
78
00
00
ENDCHAR
STARTCHAR   da
ENCODING 218
SWIDTH 960 0
DWIDTH 7 0
BBX 7 14 0 -2
BITMAP
10
20
00
84
84
84
84
84
84
84
84
78
00
00
ENDCHAR
STARTCHAR   db
ENCODING 219
SWIDTH 960 0
DWIDTH 7 0
BBX 7 14 0 -2
BITMAP
30
48
00
84
84
84
84
84
84
84
84
78
00
00
ENDCHAR
STARTCHAR   dc
ENCODING 220
SWIDTH 960 0
DWIDTH 7 0
BBX 7 14 0 -2
BITMAP
00
48
00
84
84
84
84
84
84
84
84
78
00
00
ENDCHAR
STARTCHAR   dd
ENCODING 221
SWIDTH 960 0
DWIDTH 7 0
BBX 7 14 0 -2
BITMAP
08
10
00
44
44
28
28
10
10
10
10
10
00
00
ENDCHAR
STARTCHAR   de
ENCODING 222
SWIDTH 960 0
DWIDTH 7 0
BBX 7 14 0 -2
BITMAP
00
00
80
80
f8
84
84
84
84
f8
80
80
00
00
ENDCHAR
STARTCHAR   df
ENCODING 223
SWIDTH 960 0
DWIDTH 7 0
BBX 7 14 0 -2
BITMAP
00
00
30
48
48
48
70
48
44
44
44
f8
00
00
ENDCHAR
STARTCHAR   e0
ENCODING 224
SWIDTH 960 0
DWIDTH 7 0
BBX 7 14 0 -2
BITMAP
00
00
20
10
00
78
84
1c
64
84
8c
74
00
00
ENDCHAR
STARTCHAR   e1
ENCODING 225
SWIDTH 960 0
DWIDTH 7 0
BBX 7 14 0 -2
BITMAP
00
00
08
10
00
78
84
1c
64
84
8c
74
00
00
ENDCHAR
STARTCHAR   e2
ENCODING 226
SWIDTH 960 0
DWIDTH 7 0
BBX 7 14 0 -2
BITMAP
00
00
30
48
00
78
84
1c
64
84
8c
74
00
00
ENDCHAR
STARTCHAR   e3
ENCODING 227
SWIDTH 960 0
DWIDTH 7 0
BBX 7 14 0 -2
BITMAP
00
00
64
98
00
78
84
1c
64
84
8c
74
00
00
ENDCHAR
STARTCHAR   e4
ENCODING 228
SWIDTH 960 0
DWIDTH 7 0
BBX 7 14 0 -2
BITMAP
00
00
00
48
00
78
84
1c
64
84
8c
74
00
00
ENDCHAR
STARTCHAR   e5
ENCODING 229
SWIDTH 960 0
DWIDTH 7 0
BBX 7 14 0 -2
BITMAP
00
30
48
30
00
78
84
1c
64
84
8c
74
00
00
ENDCHAR
STARTCHAR   e6
ENCODING 230
SWIDTH 960 0
DWIDTH 7 0
BBX 7 14 0 -2
BITMAP
00
00
00
00
00
7c
92
32
5e
90
92
7c
00
00
ENDCHAR
STARTCHAR   e7
ENCODING 231
SWIDTH 960 0
DWIDTH 7 0
BBX 7 14 0 -2
BITMAP
00
00
00
00
00
78
84
80
80
80
84
78
10
20
ENDCHAR
STARTCHAR   e8
ENCODING 232
SWIDTH 960 0
DWIDTH 7 0
BBX 7 14 0 -2
BITMAP
00
00
20
10
00
78
84
84
fc
80
84
78
00
00
ENDCHAR
STARTCHAR   e9
ENCODING 233
SWIDTH 960 0
DWIDTH 7 0
BBX 7 14 0 -2
BITMAP
00
00
10
20
00
78
84
84
fc
80
84
78
00
00
ENDCHAR
STARTCHAR   ea
ENCODING 234
SWIDTH 960 0
DWIDTH 7 0
BBX 7 14 0 -2
BITMAP
00
00
30
48
00
78
84
84
fc
80
84
78
00
00
ENDCHAR
STARTCHAR   eb
ENCODING 235
SWIDTH 960 0
DWIDTH 7 0
BBX 7 14 0 -2
BITMAP
00
00
00
48
00
78
84
84
fc
80
84
78
00
00
ENDCHAR
STARTCHAR   ec
ENCODING 236
SWIDTH 960 0
DWIDTH 7 0
BBX 7 14 0 -2
BITMAP
00
00
20
10
00
30
10
10
10
10
10
10
00
00
ENDCHAR
STARTCHAR   ed
ENCODING 237
SWIDTH 960 0
DWIDTH 7 0
BBX 7 14 0 -2
BITMAP
00
00
08
10
00
30
10
10
10
10
10
10
00
00
ENDCHAR
STARTCHAR   ee
ENCODING 238
SWIDTH 960 0
DWIDTH 7 0
BBX 7 14 0 -2
BITMAP
00
00
30
48
00
30
10
10
10
10
10
10
00
00
ENDCHAR
STARTCHAR   ef
ENCODING 239
SWIDTH 960 0
DWIDTH 7 0
BBX 7 14 0 -2
BITMAP
00
00
00
28
00
30
10
10
10
10
10
10
00
00
ENDCHAR
STARTCHAR   f0
ENCODING 240
SWIDTH 960 0
DWIDTH 7 0
BBX 7 14 0 -2
BITMAP
00
28
10
28
04
3c
44
44
44
44
44
38
00
00
ENDCHAR
STARTCHAR   f1
ENCODING 241
SWIDTH 960 0
DWIDTH 7 0
BBX 7 14 0 -2
BITMAP
00
00
64
98
00
b8
c4
84
84
84
84
84
00
00
ENDCHAR
STARTCHAR   f2
ENCODING 242
SWIDTH 960 0
DWIDTH 7 0
BBX 7 14 0 -2
BITMAP
00
00
20
10
00
78
84
84
84
84
84
78
00
00
ENDCHAR
STARTCHAR   f3
ENCODING 243
SWIDTH 960 0
DWIDTH 7 0
BBX 7 14 0 -2
BITMAP
00
00
10
20
00
78
84
84
84
84
84
78
00
00
ENDCHAR
STARTCHAR   f4
ENCODING 244
SWIDTH 960 0
DWIDTH 7 0
BBX 7 14 0 -2
BITMAP
00
00
30
48
00
78
84
84
84
84
84
78
00
00
ENDCHAR
STARTCHAR   f5
ENCODING 245
SWIDTH 960 0
DWIDTH 7 0
BBX 7 14 0 -2
BITMAP
00
00
64
98
00
78
84
84
84
84
84
78
00
00
ENDCHAR
STARTCHAR   f6
ENCODING 246
SWIDTH 960 0
DWIDTH 7 0
BBX 7 14 0 -2
BITMAP
00
00
00
48
00
78
84
84
84
84
84
78
00
00
ENDCHAR
STARTCHAR   f7
ENCODING 247
SWIDTH 960 0
DWIDTH 7 0
BBX 7 14 0 -2
BITMAP
00
00
00
00
00
30
00
fc
00
30
00
00
00
00
ENDCHAR
STARTCHAR   f8
ENCODING 248
SWIDTH 960 0
DWIDTH 7 0
BBX 7 14 0 -2
BITMAP
00
00
00
04
08
78
94
94
a4
a4
c4
78
80
80
ENDCHAR
STARTCHAR   f9
ENCODING 249
SWIDTH 960 0
DWIDTH 7 0
BBX 7 14 0 -2
BITMAP
00
00
20
10
00
84
84
84
84
84
8c
74
00
00
ENDCHAR
STARTCHAR   fa
ENCODING 250
SWIDTH 960 0
DWIDTH 7 0
BBX 7 14 0 -2
BITMAP
00
00
10
20
00
84
84
84
84
84
8c
74
00
00
ENDCHAR
STARTCHAR   fb
ENCODING 251
SWIDTH 960 0
DWIDTH 7 0
BBX 7 14 0 -2
BITMAP
00
00
30
48
00
84
84
84
84
84
8c
74
00
00
ENDCHAR
STARTCHAR   fc
ENCODING 252
SWIDTH 960 0
DWIDTH 7 0
BBX 7 14 0 -2
BITMAP
00
00
00
48
00
84
84
84
84
84
8c
74
00
00
ENDCHAR
STARTCHAR   fd
ENCODING 253
SWIDTH 960 0
DWIDTH 7 0
BBX 7 14 0 -2
BITMAP
00
00
10
20
00
84
84
48
48
30
10
20
20
c0
ENDCHAR
STARTCHAR   fe
ENCODING 254
SWIDTH 960 0
DWIDTH 7 0
BBX 7 14 0 -2
BITMAP
00
00
80
80
80
b8
c4
84
84
84
c4
b8
80
80
ENDCHAR
STARTCHAR   ff
ENCODING 255
SWIDTH 960 0
DWIDTH 7 0
BBX 7 14 0 -2
BITMAP
00
00
00
48
00
84
84
48
48
30
10
20
20
c0
ENDCHAR
ENDFONT
